<svg width="172" height="51" viewBox="0 0 172 51" fill="none" xmlns="http://www.w3.org/2000/svg">
<path d="M0 9.63119C0 5.57411 3.28892 2.28519 7.34601 2.28519H10.4335C12.7854 2.28519 14.692 4.19181 14.692 6.54374V12.0799C14.692 20.194 8.11418 26.7719 0 26.7719V26.7719V9.63119Z" fill="#7736A3"/>
<path d="M0 8.71292C0 4.82488 3.15188 1.673 7.03992 1.673H9.82129C12.1732 1.673 14.0798 3.57962 14.0798 5.93156V12.0799C14.0798 19.8559 7.77608 26.1597 0 26.1597V26.1597V8.71292Z" fill="#1A2F45"/>
<path d="M17.1223 24.5776L29.9542 35.2405L27.2045 38.4458C24.3104 41.8194 19.1524 42.1494 15.8562 39.1718V39.1718V39.1718C12.1506 36.3313 11.5952 31.0206 14.6333 27.4791L17.1223 24.5776Z" fill="#00A483"/>
<path d="M15.8545 39.1813C10.4792 34.9701 9.60275 27.2523 13.8969 21.943L27.4825 5.14555V5.14555C32.8578 9.35676 33.7343 17.0746 29.4402 22.3839L15.8545 39.1813V39.1813Z" fill="#00A483"/>
<path d="M16.8276 23.9655L29.4568 34.6283L26.7366 37.8501C23.896 41.2146 18.8255 41.5371 15.5815 38.5596V38.5596V38.5596C11.9346 35.7193 11.3813 30.4161 14.3633 26.8842L16.8276 23.9655Z" fill="#6C8EBF"/>
<path d="M15.5798 38.5692C10.2895 34.358 9.41464 26.6554 13.6258 21.3651L27.0241 4.5334V4.5334C32.3145 8.74461 33.1893 16.4471 28.9781 21.7375L15.5798 38.5692V38.5692Z" fill="#F0F2F5"/>
<circle cx="4.89734" cy="34.1179" r="4.89734" fill="#1A119E"/>
<circle cx="4.59125" cy="33.8118" r="4.59125" fill="#D0E0D7"/>
<path d="M57.816 35L49.688 25.048V35H45.208V12.664H49.688V22.68L57.816 12.664H63.224L54.008 23.736L63.48 35H57.816ZM83.5468 25.752C83.5468 26.392 83.5041 26.968 83.4188 27.48H70.4587C70.5654 28.76 71.0134 29.7627 71.8027 30.488C72.5921 31.2133 73.5627 31.576 74.7148 31.576C76.3787 31.576 77.5627 30.8613 78.2668 29.432H83.0988C82.5868 31.1387 81.6054 32.5467 80.1547 33.656C78.7041 34.744 76.9228 35.288 74.8108 35.288C73.1041 35.288 71.5681 34.9147 70.2027 34.168C68.8587 33.4 67.8027 32.3227 67.0347 30.936C66.2881 29.5493 65.9147 27.9493 65.9147 26.136C65.9147 24.3013 66.2881 22.6907 67.0347 21.304C67.7814 19.9173 68.8267 18.8507 70.1707 18.104C71.5147 17.3573 73.0614 16.984 74.8108 16.984C76.4961 16.984 78.0001 17.3467 79.3228 18.072C80.6668 18.7973 81.7014 19.832 82.4268 21.176C83.1734 22.4987 83.5468 24.024 83.5468 25.752ZM78.9067 24.472C78.8854 23.32 78.4694 22.4027 77.6587 21.72C76.8481 21.016 75.8561 20.664 74.6827 20.664C73.5734 20.664 72.6348 21.0053 71.8667 21.688C71.1201 22.3493 70.6614 23.2773 70.4907 24.472H78.9067ZM97.2807 17.016C99.3927 17.016 101.099 17.688 102.401 19.032C103.702 20.3547 104.353 22.2107 104.353 24.6V35H99.8727V25.208C99.8727 23.8 99.5207 22.7227 98.8167 21.976C98.1127 21.208 97.1527 20.824 95.9367 20.824C94.6994 20.824 93.7181 21.208 92.9927 21.976C92.2887 22.7227 91.9367 23.8 91.9367 25.208V35H87.4567V17.272H91.9367V19.48C92.5341 18.712 93.2914 18.1147 94.2087 17.688C95.1474 17.24 96.1714 17.016 97.2807 17.016ZM116.037 35.288C114.586 35.288 113.285 35.032 112.133 34.52C110.981 33.9867 110.064 33.272 109.381 32.376C108.72 31.48 108.357 30.488 108.293 29.4H112.805C112.89 30.0827 113.221 30.648 113.797 31.096C114.394 31.544 115.13 31.768 116.005 31.768C116.858 31.768 117.52 31.5973 117.989 31.256C118.48 30.9147 118.725 30.4773 118.725 29.944C118.725 29.368 118.426 28.9413 117.829 28.664C117.253 28.3653 116.325 28.0453 115.045 27.704C113.722 27.384 112.634 27.0533 111.781 26.712C110.949 26.3707 110.224 25.848 109.605 25.144C109.008 24.44 108.709 23.4907 108.709 22.296C108.709 21.3147 108.986 20.4187 109.541 19.608C110.117 18.7973 110.928 18.1573 111.973 17.688C113.04 17.2187 114.288 16.984 115.717 16.984C117.829 16.984 119.514 17.5173 120.773 18.584C122.032 19.6293 122.725 21.048 122.853 22.84H118.565C118.501 22.136 118.202 21.5813 117.669 21.176C117.157 20.7493 116.464 20.536 115.589 20.536C114.778 20.536 114.149 20.6853 113.701 20.984C113.274 21.2827 113.061 21.6987 113.061 22.232C113.061 22.8293 113.36 23.288 113.957 23.608C114.554 23.9067 115.482 24.216 116.741 24.536C118.021 24.856 119.077 25.1867 119.909 25.528C120.741 25.8693 121.456 26.4027 122.053 27.128C122.672 27.832 122.992 28.7707 123.013 29.944C123.013 30.968 122.725 31.8853 122.149 32.696C121.594 33.5067 120.784 34.1467 119.717 34.616C118.672 35.064 117.445 35.288 116.037 35.288ZM137.314 17.016C138.658 17.016 139.853 17.3147 140.898 17.912C141.944 18.488 142.754 19.352 143.33 20.504C143.928 21.6347 144.226 23 144.226 24.6V35H139.746V25.208C139.746 23.8 139.394 22.7227 138.69 21.976C137.986 21.208 137.026 20.824 135.81 20.824C134.573 20.824 133.592 21.208 132.866 21.976C132.162 22.7227 131.81 23.8 131.81 25.208V35H127.33V11.32H131.81V19.48C132.386 18.712 133.154 18.1147 134.114 17.688C135.074 17.24 136.141 17.016 137.314 17.016ZM156.999 35.288C155.292 35.288 153.756 34.9147 152.391 34.168C151.025 33.4 149.948 32.3227 149.159 30.936C148.391 29.5493 148.007 27.9493 148.007 26.136C148.007 24.3227 148.401 22.7227 149.191 21.336C150.001 19.9493 151.1 18.8827 152.487 18.136C153.873 17.368 155.42 16.984 157.127 16.984C158.833 16.984 160.38 17.368 161.767 18.136C163.153 18.8827 164.241 19.9493 165.031 21.336C165.841 22.7227 166.247 24.3227 166.247 26.136C166.247 27.9493 165.831 29.5493 164.999 30.936C164.188 32.3227 163.079 33.4 161.671 34.168C160.284 34.9147 158.727 35.288 156.999 35.288ZM156.999 31.384C157.809 31.384 158.567 31.192 159.271 30.808C159.996 30.4027 160.572 29.8053 160.999 29.016C161.425 28.2267 161.639 27.2667 161.639 26.136C161.639 24.4507 161.191 23.16 160.295 22.264C159.42 21.3467 158.343 20.888 157.063 20.888C155.783 20.888 154.705 21.3467 153.831 22.264C152.977 23.16 152.551 24.4507 152.551 26.136C152.551 27.8213 152.967 29.1227 153.799 30.04C154.652 30.936 155.719 31.384 156.999 31.384ZM163.431 11.352V14.552H151.207V11.352H163.431Z" fill="white"/>
</svg>
