<svg width="38" height="43" viewBox="0 0 38 43" fill="none" xmlns="http://www.w3.org/2000/svg">
<path d="M0 7.95819C0 3.9011 3.28892 0.612183 7.34601 0.612183H10.4335C12.7854 0.612183 14.692 2.5188 14.692 4.87074V10.4069C14.692 18.521 8.11418 25.0989 0 25.0989V25.0989V7.95819Z" fill="#7736A3"/>
<path d="M0 7.03992C0 3.15188 3.15188 0 7.03992 0H9.82129C12.1732 0 14.0798 1.90662 14.0798 4.25856V10.4068C14.0798 18.1829 7.77608 24.4867 0 24.4867V24.4867V7.03992Z" fill="#1A2F45"/>
<path d="M17.1223 22.9046L29.9542 33.5675L27.2045 36.7728C24.3104 40.1464 19.1524 40.4764 15.8562 37.4987V37.4987V37.4987C12.1506 34.6583 11.5952 29.3476 14.6333 25.8061L17.1223 22.9046Z" fill="#00A483"/>
<path d="M15.8545 37.5083C10.4792 33.2971 9.60275 25.5792 13.8969 20.27L27.4825 3.47255V3.47255C32.8578 7.68376 33.7343 15.4016 29.4402 20.7109L15.8545 37.5083V37.5083Z" fill="#00A483"/>
<path d="M16.8276 22.2925L29.4568 32.9553L26.7366 36.1771C23.896 39.5416 18.8255 39.8641 15.5815 36.8866V36.8866V36.8866C11.9346 34.0463 11.3813 28.7431 14.3633 25.2112L16.8276 22.2925Z" fill="#6C8EBF"/>
<path d="M15.5798 36.8962C10.2895 32.685 9.41464 24.9824 13.6258 19.6921L27.0241 2.8604V2.8604C32.3145 7.07161 33.1893 14.7741 28.9781 20.0645L15.5798 36.8962V36.8962Z" fill="#F0F2F5"/>
<circle cx="4.89734" cy="32.4449" r="4.89734" fill="#1A119E"/>
<circle cx="4.59125" cy="32.1388" r="4.59125" fill="#D0E0D7"/>
</svg>
